<svg xmlns="http://www.w3.org/2000/svg" version="1.1" xmlns:xlink="http://www.w3.org/1999/xlink" xmlns:svgjs="http://svgjs.dev/svgjs" width="128" height="128" viewBox="0 0 128 128"><g transform="matrix(0.8046875,0,0,0.8046875,12.100888755450065,11.907472991653705)"><svg viewBox="0 0 94 96" data-background-color="#ffffff" preserveAspectRatio="xMidYMid meet" height="130" width="128" xmlns="http://www.w3.org/2000/svg" xmlns:xlink="http://www.w3.org/1999/xlink"><g id="tight-bounds" transform="matrix(1,0,0,1,0.3642374464824627,0.45167555489460653)"><svg viewBox="0 0 93.70635434214174 95.481" height="95.481" width="93.70635434214174"><g><svg viewBox="0 0 93.70635434214174 95.481" height="95.481" width="93.70635434214174"><g><svg viewBox="0 0 93.70635434214174 95.481" height="95.481" width="93.70635434214174"><g id="textblocktransform"><svg viewBox="0 0 93.70635434214174 95.481" height="95.481" width="93.70635434214174" id="textblock"><g><svg viewBox="0 0 93.70635434214174 95.481" height="95.481" width="93.70635434214174"><g><svg viewBox="0 0 93.70635434214174 95.481" height="95.481" width="93.70635434214174"><g><svg xmlns="http://www.w3.org/2000/svg" data-name="Layer 1" viewBox="3.9685989760972156 3.4612443446179144 56.03749677882095 57.098755655382085" x="0" y="0" height="95.481" width="93.70635434214174" class="icon-icon-0" data-fill-palette-color="accent" id="icon-0"><path d="M59.29 31.23a5.34 5.34 0 0 0-5.06-0.09 11.06 11.06 0 0 0-2.69 1.91 5.9 5.9 0 0 0-7.17 0.88A7.79 7.79 0 0 0 39 35.79a1.29 1.29 0 0 0-0.17 0.16c-0.06 0-0.62 0.63-0.71 0.71v0C28 46.9 19.06 52.76 5.77 50.32A1.51 1.51 0 0 0 4.56 53c6.24 5 12.55 7.56 19 7.56 8.15 0 16.5-4 25.2-12.13 0.06 0 1.16-1.09 1.26-1.2a0.62 0.62 0 0 0 0.14-0.18 8.06 8.06 0 0 0 1.62-3.56 6.42 6.42 0 0 0 1.07-0.88 6.22 6.22 0 0 0 0.82-7.39 8.13 8.13 0 0 1 1.85-1.33 2.44 2.44 0 0 1 2.21-0.08 1.5 1.5 0 0 0 1.58-2.55Zm-10.8 4a2.88 2.88 0 0 1 2.11 0.86 3.16 3.16 0 0 1 0.81 3 7.89 7.89 0 0 0-1.87-2.93 7.42 7.42 0 0 0-1.16-0.95Zm-0.74 10c-0.24 0.23-0.81 0.78-1 1C30.87 60.92 19.18 58.79 11 53.86h0.52c11.27 0 19.8-6.06 28.71-15.08 0.1-0.09 0.5-0.5 0.68-0.68a4.79 4.79 0 0 1 6.52 0.21A5.16 5.16 0 0 1 47.75 45.21Z" fill="#ff585f" data-fill-palette-color="accent"></path><path d="M31.85 21.21c-0.12 0.68-0.23 1.36-0.31 2A10.28 10.28 0 0 0 32.23 29a5.73 5.73 0 0 0 5.46 3.39 1.5 1.5 0 0 0 1-0.46A14 14 0 0 0 41.89 27a16.89 16.89 0 0 1 0.26 3.11 1.5 1.5 0 0 0 1.49 1.51h0a1.5 1.5 0 0 0 1.5-1.49 19.45 19.45 0 0 0-4.39-12.55 1.5 1.5 0 0 0-2.47 1.68 9.21 9.21 0 0 1 1.05 5.59 8.63 8.63 0 0 1-2.42 4.49 3.11 3.11 0 0 1-2-1.68 7.45 7.45 0 0 1-0.42-4.09c0.08-0.64 0.19-1.27 0.3-1.9a28.86 28.86 0 0 0 0.41-3.17A14.72 14.72 0 0 0 31.63 8.15a14.35 14.35 0 0 0-9.77-4.68 1.5 1.5 0 0 0-0.55 2.94 8.93 8.93 0 0 1 6 6.34 5 5 0 0 1-0.25 3.47A3.86 3.86 0 0 1 23.36 18a3.59 3.59 0 0 1-2.9-3 1.5 1.5 0 0 0-2.83-0.44 7.66 7.66 0 0 0 1 8.29 6 6 0 0 1 1 2.13A6.67 6.67 0 0 1 19 30.12a14.77 14.77 0 0 0-8.36-9 1.5 1.5 0 0 0-1.85 2.15c1.42 2.44 1.48 5.57 1.35 8.31L10 33.12a27.89 27.89 0 0 0 0.31 8.19c0.94 4 3.71 7.09 7 7.8l0.31 0a1.5 1.5 0 0 0 0.31-3c-2.5-0.53-4.18-3.16-4.74-5.54A25.38 25.38 0 0 1 13 33.31c0-0.55 0.07-1.09 0.09-1.63A25.56 25.56 0 0 0 12.84 26a12.27 12.27 0 0 1 3.81 7.48 1.49 1.49 0 0 0 2.4 1 9.81 9.81 0 0 0 3.5-10.24A8.88 8.88 0 0 0 21 21a6.24 6.24 0 0 1-0.66-1 5.92 5.92 0 0 0 2.73 1 6.88 6.88 0 0 0 6.65-3.39 8 8 0 0 0 0.53-5.58 11.87 11.87 0 0 0-0.43-1.4 11.66 11.66 0 0 1 2.41 7.72A24.43 24.43 0 0 1 31.85 21.21Z" fill="#ff585f" data-fill-palette-color="accent"></path></svg></g></svg></g></svg></g></svg></g></svg></g><g></g></svg></g><defs></defs></svg><rect width="93.70635434214174" height="95.481" fill="none" stroke="none" visibility="hidden"></rect></g></svg></g></svg>